<svg xmlns="http://www.w3.org/2000/svg" width="19.845" height="21.297" viewBox="0 0 19.845 21.297"><g transform="translate(2 1.297)"><g transform="translate(4.845 13)" fill="none" stroke="#86a8e0" stroke-linecap="round" stroke-linejoin="round" stroke-width="2"><ellipse cx="3" cy="2.5" rx="3" ry="2.5" stroke="none"/><ellipse cx="3" cy="2.5" rx="4" ry="3.5" fill="none"/></g><g transform="translate(2.369 0.703)" fill="none" stroke-linecap="round" stroke-linejoin="round"><path d="M 15.718674659729 13.751220703125 L 13.03623485565186 13.751220703125 L -2.36926531791687 13.751220703125 L -5.276975154876709 13.751220703125 L -2.984345436096191 11.96275043487549 L -1.284005403518677 10.63632488250732 L -1.284005403518677 5.720840930938721 C -1.284005403518677 2.014960765838623 1.730954647064209 -0.9999991655349731 5.436834812164307 -0.9999991655349731 C 9.142724990844727 -0.9999991655349731 12.15768432617188 2.014960765838623 12.15768432617188 5.720840930938721 L 12.15768432617188 10.66764545440674 L 13.69084453582764 11.99526119232178 L 15.718674659729 13.751220703125 Z" stroke="none"/><path d="M 5.436834812164307 9.5367431640625e-07 C 2.277304649353027 9.5367431640625e-07 -0.2840051651000977 2.561310768127441 -0.2840051651000977 5.720840930938721 L -0.2840051651000977 11.12452125549316 L -2.369265556335449 12.751220703125 L 13.03623485565186 12.751220703125 L 11.15768432617188 11.12452125549316 L 11.15768432617188 5.720840930938721 C 11.15768432617188 2.561310768127441 8.59637451171875 9.5367431640625e-07 5.436834812164307 9.5367431640625e-07 M 5.436834812164307 -1.999999046325684 C 9.694124221801758 -1.999999046325684 13.15768432617188 1.463550567626953 13.15768432617188 5.720840930938721 L 13.15768432617188 10.21075248718262 L 14.3454647064209 11.23929119110107 C 14.97677421569824 11.78597068786621 15.20196533203125 12.6673412322998 14.91024398803711 13.4498405456543 C 14.61853408813477 14.23234081268311 13.87134456634521 14.751220703125 13.03623485565186 14.751220703125 L -2.369265556335449 14.751220703125 C -3.223145484924316 14.751220703125 -3.982845306396484 14.20912075042725 -4.26054573059082 13.40166091918945 C -4.538235664367676 12.59420108795166 -4.272675514221191 11.69949054718018 -3.599425315856934 11.17429065704346 L -2.284005165100098 10.14813899993896 L -2.284005165100098 5.720840930938721 C -2.284005165100098 1.463550567626953 1.179544448852539 -1.999999046325684 5.436834812164307 -1.999999046325684 Z" stroke="none" fill="#86a8e0"/></g><g transform="translate(11.845)" fill="#86a8e0" stroke="#f5f9ff" stroke-linecap="round" stroke-linejoin="round" stroke-width="1"><circle cx="2.5" cy="2.5" r="2.5" stroke="none"/><circle cx="2.5" cy="2.5" r="3" fill="none"/></g></g></svg>
