<svg xmlns="http://www.w3.org/2000/svg" width="25.27" height="24.323" viewBox="0 0 25.27 24.323"><g transform="translate(5.191 6.915)"><g transform="translate(1.247 1.299)" fill="none" stroke-linecap="round" stroke-linejoin="round" opacity="0.897"><path d="M3.06,0H13.771a3.06,3.06,0,0,1,3.06,3.06v4.59a3.06,3.06,0,0,1-3.06,3.06H9.442l-2.1,3.4L5.2,10.711H3.06A3.06,3.06,0,0,1,0,7.651V3.06A3.06,3.06,0,0,1,3.06,0Z" stroke="none"/><path d="M 3.060317993164062 2.86102294921875e-06 C 1.370158195495605 2.86102294921875e-06 -1.9073486328125e-06 1.370152473449707 -1.9073486328125e-06 3.060322761535645 L -1.9073486328125e-06 7.650802612304688 C -1.9073486328125e-06 9.340972900390625 1.370158195495605 10.71112251281738 3.060317993164062 10.71112251281738 L 5.196417808532715 10.71112251281738 L 7.33830738067627 14.108962059021 L 9.44190788269043 10.71112251281738 L 13.77144813537598 10.71112251281738 C 15.4616174697876 10.71112251281738 16.83177757263184 9.340972900390625 16.83177757263184 7.650802612304688 L 16.83177757263184 3.060322761535645 C 16.83177757263184 1.370152473449707 15.4616174697876 2.86102294921875e-06 13.77144813537598 2.86102294921875e-06 L 3.060317993164062 2.86102294921875e-06 M 3.060317993164062 -1.999998092651367 L 13.77144813537598 -1.999998092651367 C 16.56172752380371 -1.999998092651367 18.83177757263184 0.2700529098510742 18.83177757263184 3.060322761535645 L 18.83177757263184 7.650802612304688 C 18.83177757263184 10.44107246398926 16.56172752380371 12.71112251281738 13.77144813537598 12.71112251281738 L 10.55596828460693 12.71112251281738 L 9.038797378540039 15.16173267364502 C 8.675737380981445 15.74817276000977 8.036128044128418 16.10615158081055 7.346417427062988 16.10894203186035 C 6.656638145446777 16.11171722412109 6.014206886291504 15.75895214080811 5.646408081054688 15.17548274993896 L 4.092953681945801 12.71112251281738 L 3.060317993164062 12.71112251281738 C 0.2700481414794922 12.71112251281738 -2.000001907348633 10.44107246398926 -2.000001907348633 7.650802612304688 L -2.000001907348633 3.060322761535645 C -2.000001907348633 0.2700529098510742 0.2700481414794922 -1.999998092651367 3.060317993164062 -1.999998092651367 Z" stroke="none" fill="#86a8e0"/></g><g transform="translate(-3.191 -4.915)" fill="none" stroke-linecap="round" stroke-linejoin="round"><path d="M3.06,0H13.771a3.06,3.06,0,0,1,3.06,3.06v4.59a3.06,3.06,0,0,1-3.06,3.06H9.442l-2.1,3.4L5.2,10.711H3.06A3.06,3.06,0,0,1,0,7.651V3.06A3.06,3.06,0,0,1,3.06,0Z" stroke="none"/><path d="M 3.060317993164062 2.86102294921875e-06 C 1.370158195495605 2.86102294921875e-06 -1.9073486328125e-06 1.370152473449707 -1.9073486328125e-06 3.060322761535645 L -1.9073486328125e-06 7.650802612304688 C -1.9073486328125e-06 9.340972900390625 1.370158195495605 10.71112251281738 3.060317993164062 10.71112251281738 L 5.196417808532715 10.71112251281738 L 7.33830738067627 14.108962059021 L 9.44190788269043 10.71112251281738 L 13.77144813537598 10.71112251281738 C 15.4616174697876 10.71112251281738 16.83177757263184 9.340972900390625 16.83177757263184 7.650802612304688 L 16.83177757263184 3.060322761535645 C 16.83177757263184 1.370152473449707 15.4616174697876 2.86102294921875e-06 13.77144813537598 2.86102294921875e-06 L 3.060317993164062 2.86102294921875e-06 M 3.060317993164062 -1.999998092651367 L 13.77144813537598 -1.999998092651367 C 16.56172752380371 -1.999998092651367 18.83177757263184 0.2700529098510742 18.83177757263184 3.060322761535645 L 18.83177757263184 7.650802612304688 C 18.83177757263184 10.44107246398926 16.56172752380371 12.71112251281738 13.77144813537598 12.71112251281738 L 10.55596828460693 12.71112251281738 L 9.038797378540039 15.16173267364502 C 8.675737380981445 15.74817276000977 8.036128044128418 16.10615158081055 7.346417427062988 16.10894203186035 C 6.656638145446777 16.11171722412109 6.014206886291504 15.75895214080811 5.646408081054688 15.17548274993896 L 4.092953681945801 12.71112251281738 L 3.060317993164062 12.71112251281738 C 0.2700481414794922 12.71112251281738 -2.000001907348633 10.44107246398926 -2.000001907348633 7.650802612304688 L -2.000001907348633 3.060322761535645 C -2.000001907348633 0.2700529098510742 0.2700481414794922 -1.999998092651367 3.060317993164062 -1.999998092651367 Z" stroke="none" fill="#86a8e0"/></g></g></svg>