<svg xmlns="http://www.w3.org/2000/svg" width="26.056" height="26.056" viewBox="0 0 26.056 26.056"><path d="M97.027,34.6a7.572,7.572,0,1,0-5.357-2.218A7.576,7.576,0,0,0,97.027,34.6Zm0-14.158a6.582,6.582,0,1,1-4.655,1.928A6.583,6.583,0,0,1,97.027,20.44Zm5.381,6.725a5.31,5.31,0,0,0-5.31-5.312V32.475a5.31,5.31,0,0,0,5.31-5.31Zm-5.453,8.5a.5.5,0,0,0-.5.5v3.39a.5.5,0,1,0,.993,0v-3.4a.5.5,0,0,0-.5-.5Zm6.829-2.468a.5.5,0,0,0-.7.68l2.4,2.4h0a.5.5,0,0,0,.7-.7Zm1.879-6.086a.5.5,0,0,0,.5.5h3.4a.5.5,0,1,0,0-.993h-3.4a.5.5,0,0,0-.5.477Zm-1.78-6.149,2.4-2.4h0a.5.5,0,0,0-.7-.7l-2.4,2.4a.5.5,0,0,0,.7.7ZM97.1,18.385a.5.5,0,0,0,.5-.5v-3.4a.5.5,0,1,0-.993,0v3.4a.5.5,0,0,0,.5.5Zm-6.829,2.468h0a.5.5,0,0,0,.7-.688l-2.4-2.4h0a.5.5,0,1,0-.7.7Zm-5.76,6.583h3.387a.5.5,0,0,0,0-.993H84.5a.5.5,0,1,0,0,.993Zm6.034,5.485h0a.488.488,0,0,0-.351.145l-2.4,2.4a.494.494,0,0,0,0,.7.5.5,0,0,0,.7,0l2.4-2.405a.5.5,0,0,0-.351-.845Z" transform="translate(-83.999 -13.994)" fill="#86a8e0"/></svg>