<svg xmlns="http://www.w3.org/2000/svg" width="20.253" height="23.659" viewBox="0 0 20.253 23.659"><g transform="translate(0.5 1.335)"><path d="M133.08,22.4a1.486,1.486,0,0,0-1.478,1.478v19.7a1.486,1.486,0,0,0,1.478,1.478h2.955a.493.493,0,1,0,0-.985H133.08a.481.481,0,0,1-.493-.493v-19.7a.481.481,0,0,1,.493-.493h2.955a.493.493,0,1,0,0-.985Zm12.776,5.9a.493.493,0,0,0-.339.824l3.694,4.11H136.974a.493.493,0,1,0,.046.985h12.191l-3.694,4.1a.493.493,0,0,0,.739.654l4.433-4.926a.493.493,0,0,0,0-.654l-4.433-4.926a.493.493,0,0,0-.4-.169Z" transform="translate(-131.602 -23.233)" fill="#86a8e0" stroke="#82a4da" stroke-width="1"/></g></svg>