<svg xmlns="http://www.w3.org/2000/svg" width="18.939" height="24.5" viewBox="0 0 18.939 24.5"><g transform="translate(-159.197 -30.219)"><path d="M175.265,39.575v-7.4a1.453,1.453,0,0,0-1.452-1.452H163.52a1.453,1.453,0,0,0-1.452,1.452v7.4A2.424,2.424,0,0,0,159.7,42v9.8a2.425,2.425,0,0,0,2.425,2.425h13.089a2.425,2.425,0,0,0,2.425-2.425V42a2.424,2.424,0,0,0-2.371-2.423Zm-2.375-6.481v6.478h-8.446V33.094Zm-4.223,16.452a2.378,2.378,0,1,1,2.378-2.378A2.378,2.378,0,0,1,168.667,49.546Z" fill="none" stroke="#8da7db" stroke-width="1"/></g></svg>