<svg xmlns="http://www.w3.org/2000/svg" width="22.928" height="21.372" viewBox="0 0 22.928 21.372"><g transform="translate(0.25 0.25)"><path d="M179.418,125.762h16.246a.276.276,0,0,0,0-.551H179.418a.787.787,0,0,1-.785-.785V121.8a.787.787,0,0,1,.785-.785h18.617a.787.787,0,0,1,.785.785v2.63a.77.77,0,0,1-.151.461.276.276,0,0,0,.447.325,1.328,1.328,0,0,0,.255-.787V121.8a1.337,1.337,0,0,0-1.336-1.336H179.418a1.337,1.337,0,0,0-1.336,1.336v2.63a1.337,1.337,0,0,0,1.336,1.334Z" transform="translate(-178.081 -120.461)" fill="#86a8e0" stroke="#86a8e1" stroke-width="0.5"/><path d="M193.777,231.53H179.262a1.19,1.19,0,0,0-1.189,1.189v2.922a1.19,1.19,0,0,0,1.189,1.189h13.985a.276.276,0,0,0,0-.551H179.262a.638.638,0,0,1-.638-.638v-2.922a.638.638,0,0,1,.638-.638h14.513a.276.276,0,0,0,0-.552Z" transform="translate(-178.073 -224.239)" fill="#86a8e0" stroke="#86a8e1" stroke-width="0.5"/><path d="M179.272,330.053h13.985a.276.276,0,1,0,0-.551H179.272a1.19,1.19,0,0,0-1.189,1.189v2.922a1.19,1.19,0,0,0,1.189,1.189h13.985a.276.276,0,1,0,0-.551H179.272a.638.638,0,0,1-.638-.638v-2.922A.639.639,0,0,1,179.272,330.053Z" transform="translate(-178.082 -315.779)" fill="#86a8e0" stroke="#86a8e1" stroke-width="0.5"/><path d="M433.415,189.481a.274.274,0,0,0-.044-.2l-2.746-4.016a.286.286,0,0,0-.456,0l-2.746,4.016a.281.281,0,0,0-.044.2.253.253,0,0,0-.015.085v10.872a1.337,1.337,0,0,0,1.336,1.336h3.391a1.338,1.338,0,0,0,1.336-1.336V189.564a.239.239,0,0,0-.013-.083Zm-2.117-2.259,1.413,2.066h-4.628l1.413-2.066Zm-3.382,2.618h4.961v8.523h-4.961Zm4.963,10.6a.787.787,0,0,1-.785.785H428.7a.787.787,0,0,1-.785-.785v-1.522h4.961v1.522Z" transform="translate(-411 -180.902)" fill="#86a8e0" stroke="#86a8e1" stroke-width="0.5"/></g></svg>