<svg xmlns="http://www.w3.org/2000/svg" width="119.113" height="120.056" viewBox="0 0 119.113 120.056"><g transform="translate(3.536 0.928)"><g transform="translate(0 1.583)"><path d="M106.068,150.957c-3.415,3.415-17.908,5.548-17.908,5.548s2.133-14.493,5.548-17.908a8.74,8.74,0,1,1,12.36,12.36Z" transform="translate(-63.72 -67.762)" fill="rgba(0,0,0,0)" stroke="#86a8e0" stroke-linecap="round" stroke-linejoin="round" stroke-width="5"/><path d="M82.974,204.3l-4.254,4.254" transform="translate(-60.016 -94.544)" fill="rgba(0,0,0,0)" stroke="#86a8e0" stroke-linecap="round" stroke-linejoin="round" stroke-width="5"/><path d="M52.194,173.52l-4.254,4.254" transform="translate(-47.94 -82.468)" fill="rgba(0,0,0,0)" stroke="#86a8e0" stroke-linecap="round" stroke-linejoin="round" stroke-width="5"/><path d="M67.038,180.63l-15.708,15.8" transform="translate(-49.27 -85.257)" fill="rgba(0,0,0,0)" stroke="#86a8e0" stroke-linecap="round" stroke-linejoin="round" stroke-width="5"/><path d="M114.815,72.99l-14.584-2.54L85.1,87.063l14.523,2.765Z" transform="translate(-62.519 -42.029)" fill="rgba(0,0,0,0)" stroke="#86a8e0" stroke-linecap="round" stroke-linejoin="round" stroke-width="5"/><path d="M172.058,123.61l2.54,14.584-16.607,15.125L155.22,138.8Z" transform="translate(-90.03 -62.886)" fill="rgba(0,0,0,0)" stroke="#86a8e0" stroke-linecap="round" stroke-linejoin="round" stroke-width="5"/><path d="M120.617,139.491l-17.4-17.4,5.8-5.8,17.4,17.4Z" transform="translate(-69.628 -60.014)" fill="rgba(0,0,0,0)" stroke="#000" stroke-linecap="round" stroke-linejoin="round" stroke-width="5"/><path d="M181.159,25.636a6.392,6.392,0,0,1,1.853,4.023c.456,6.2.055,23.152-15.046,39.206-14.584,15.508-35.98,33.64-35.98,33.64l-27.7-27.7s18.133-21.4,33.64-35.98c16.048-15.1,33.026-15.5,39.206-15.046A6.393,6.393,0,0,1,181.159,25.636Z" transform="translate(-70.048 -23.679)" fill="rgba(0,0,0,0)" stroke="#000" stroke-linecap="round" stroke-linejoin="round" stroke-width="5"/><path d="M144.454,99.19l-6.143,6.174L122.7,121.1l5.852-5.87Z" transform="translate(-77.271 -53.305)" fill="rgba(0,0,0,0)" stroke="#86a8e0" stroke-linecap="round" stroke-linejoin="round" stroke-width="5"/><path d="M197.482,61.32a9,9,0,1,1,2.653-6.38A9,9,0,0,1,197.482,61.32Z" transform="translate(-100.59 -32.413)" fill="rgba(0,0,0,0)" stroke="#86a8e0" stroke-linecap="round" stroke-linejoin="round" stroke-width="5"/></g></g></svg>