<svg xmlns="http://www.w3.org/2000/svg" width="23.929" height="23.491" viewBox="0 0 23.929 23.491"><path d="M11.965,0A11.856,11.856,0,0,0,0,11.745,11.856,11.856,0,0,0,11.965,23.491,11.856,11.856,0,0,0,23.929,11.745,11.856,11.856,0,0,0,11.965,0ZM5.982,5.873H17.947a1.49,1.49,0,0,1,.611.13l-6.593,7.551L5.371,6a1.49,1.49,0,0,1,.611-.13ZM4.487,16.15V7.341c0-.031,0-.062,0-.092l4.385,5.023L4.538,16.529a1.431,1.431,0,0,1-.052-.38Zm13.46,1.468H5.982a1.509,1.509,0,0,1-.387-.051L9.851,13.39l2.113,2.42,2.113-2.42,4.256,4.178a1.509,1.509,0,0,1-.387.051Zm1.5-1.468a1.431,1.431,0,0,1-.052.38l-4.337-4.258L19.44,7.249c0,.03,0,.061,0,.092Z" fill="#82a4da"/></svg>