<svg xmlns="http://www.w3.org/2000/svg" width="163.108" height="52.313" viewBox="0 0 163.108 52.313"><g transform="translate(1.414)"><path d="M95.906,142.491c-1.477,1.477-7.746,2.4-7.746,2.4s.923-6.269,2.4-7.746a3.78,3.78,0,1,1,5.346,5.346Z" transform="translate(-77.588 -104.922)" fill="rgba(0,0,0,0)" stroke="#86a8e0" stroke-linecap="round" stroke-linejoin="round" stroke-width="2"/><path d="M80.56,204.3l-1.84,1.84" transform="translate(-70.63 -155.241)" fill="rgba(0,0,0,0)" stroke="#86a8e0" stroke-linecap="round" stroke-linejoin="round" stroke-width="2"/><path d="M49.78,173.52l-1.84,1.84" transform="translate(-47.94 -132.552)" fill="rgba(0,0,0,0)" stroke="#86a8e0" stroke-linecap="round" stroke-linejoin="round" stroke-width="2"/><path d="M58.125,180.63l-6.795,6.834" transform="translate(-50.439 -137.793)" fill="rgba(0,0,0,0)" stroke="#86a8e0" stroke-linecap="round" stroke-linejoin="round" stroke-width="2"/><path d="M97.953,71.549l-6.308-1.1L85.1,77.636l6.282,1.2Z" transform="translate(-75.333 -56.574)" fill="rgba(0,0,0,0)" stroke="#86a8e0" stroke-linecap="round" stroke-linejoin="round" stroke-width="2"/><path d="M162.5,123.61l1.1,6.308-7.184,6.542-1.2-6.282Z" transform="translate(-127.022 -95.761)" fill="rgba(0,0,0,0)" stroke="#86a8e0" stroke-linecap="round" stroke-linejoin="round" stroke-width="2"/><path d="M110.745,126.326,103.22,118.8l2.508-2.51,7.528,7.528Z" transform="translate(-88.69 -90.365)" fill="rgba(0,0,0,0)" stroke="#000" stroke-linecap="round" stroke-linejoin="round" stroke-width="2"/><path d="M137.54,24.526a2.765,2.765,0,0,1,.8,1.74,22.538,22.538,0,0,1-6.508,16.959c-6.308,6.708-15.563,14.551-15.563,14.551L104.29,45.8s7.843-9.255,14.551-15.563A22.547,22.547,0,0,1,135.8,23.724,2.765,2.765,0,0,1,137.54,24.526Z" transform="translate(-89.478 -22.096)" fill="rgba(0,0,0,0)" stroke="#000" stroke-linecap="round" stroke-linejoin="round" stroke-width="2"/><path d="M132.11,99.19l-2.657,2.671-6.753,6.808,2.531-2.539Z" transform="translate(-103.049 -77.759)" fill="rgba(0,0,0,0)" stroke="#86a8e0" stroke-linecap="round" stroke-linejoin="round" stroke-width="2"/><path d="M188.774,52.593a3.893,3.893,0,1,1,1.147-2.76A3.893,3.893,0,0,1,188.774,52.593Z" transform="translate(-146.862 -38.506)" fill="rgba(0,0,0,0)" stroke="#86a8e0" stroke-linecap="round" stroke-linejoin="round" stroke-width="2"/><path d="M301.273,17.774a89.759,89.759,0,0,0-21.73,4.006c-7.972,2.747-12.312,5.565-13.939,9.068a6.189,6.189,0,0,0-.6,3.364,6.117,6.117,0,0,0,.733,3.6c4.074,8.608,24.408,13.166,56.623,12.709,21.136-.321,31.542-1.787,39.017-5.564,3.732-1.879,6.182-3.985,7.578-6.527.62-1.122.689-1.419.689-3.417a5.822,5.822,0,0,0-.689-3.548c-1.28-2.518-4.487-5.449-8.127-7.4-6.274-3.364-16.851-5.52-30.682-6.227C326.144,17.635,303.865,17.59,301.273,17.774Zm21.18,2.1a85.928,85.928,0,0,1,9.775,1.969l1.078.321.137-.686a1.774,1.774,0,0,0,.068-.8c-.068-.045-1.143-.365-2.426-.686a19.712,19.712,0,0,1-2.289-.665c.137-.116,6.663.365,9.891.71a84.149,84.149,0,0,1,17.38,3.548,27.165,27.165,0,0,1,10.028,6.343,13.249,13.249,0,0,1,1.648,2.521,4.115,4.115,0,0,1,.549,2.815,7.226,7.226,0,0,1-2.563,4.855c-6.411,6.387-19.451,8.861-46.824,8.861-15.366,0-24.2-.71-33.981-2.747-14.373-2.989-20.875-8.493-17.821-15.064.6-1.283,2.954-3.459,4.97-4.6,4.876-2.77,14.241-5.588,20.973-6.308l1.259-.137-1.314.457c-2.153.71-2.04.6-1.74,1.4.16.5.342.662.594.573.184-.071,1.235-.368,2.313-.689,3.845-1.075,7.144-1.577,16.165-2.4a62.361,62.361,0,0,1,12.136.421Z" transform="translate(-207.946 -17.658)" fill="#86a8e0"/><path d="M315.122,66.348h-3.294a2.874,2.874,0,0,0-.263-.915,2.253,2.253,0,0,0-.541-.7,2.409,2.409,0,0,0-.789-.444,3.154,3.154,0,0,0-1.009-.155,2.939,2.939,0,0,0-1.69.486,3.023,3.023,0,0,0-1.086,1.39,5.656,5.656,0,0,0-.381,2.2,5.746,5.746,0,0,0,.386,2.25,2.8,2.8,0,0,0,2.749,1.819,3.323,3.323,0,0,0,.986-.137,2.435,2.435,0,0,0,.789-.4,2.269,2.269,0,0,0,.56-.652,2.644,2.644,0,0,0,.3-.873l3.293.018A5.021,5.021,0,0,1,314.613,72a5.7,5.7,0,0,1-1.183,1.577,5.492,5.492,0,0,1-1.827,1.135,6.737,6.737,0,0,1-2.468.423,6.59,6.59,0,0,1-3.275-.807,5.754,5.754,0,0,1-2.284-2.366,8.811,8.811,0,0,1,.018-7.531,5.809,5.809,0,0,1,2.3-2.35,6.571,6.571,0,0,1,3.246-.8,7.274,7.274,0,0,1,2.266.339,5.573,5.573,0,0,1,1.84.988,5.07,5.07,0,0,1,1.283,1.577A5.783,5.783,0,0,1,315.122,66.348Z" transform="translate(-235.763 -49.812)" fill="#86a8e0"/><path d="M380.147,68.194a7.712,7.712,0,0,1-.867,3.775,5.846,5.846,0,0,1-2.316,2.35,7.034,7.034,0,0,1-6.542,0,5.874,5.874,0,0,1-2.308-2.366,8.743,8.743,0,0,1,0-7.538,5.812,5.812,0,0,1,2.308-2.35,7.055,7.055,0,0,1,6.542,0,5.83,5.83,0,0,1,2.316,2.355A7.7,7.7,0,0,1,380.147,68.194Zm-3.333,0a5.849,5.849,0,0,0-.373-2.226,2.92,2.92,0,0,0-5.473,0,6.942,6.942,0,0,0,.008,4.453,2.92,2.92,0,0,0,5.473,0A5.859,5.859,0,0,0,376.814,68.194Z" transform="translate(-283.324 -49.8)" fill="#86a8e0"/><path d="M439.414,75.477H434.42V61.993H439.4a7.359,7.359,0,0,1,3.554.807,5.562,5.562,0,0,1,2.3,2.318,8.5,8.5,0,0,1,0,7.234,5.52,5.52,0,0,1-2.3,2.324A7.4,7.4,0,0,1,439.414,75.477ZM437.687,72.7h1.6a4.368,4.368,0,0,0,1.921-.384,2.52,2.52,0,0,0,1.191-1.259,5.578,5.578,0,0,0,.4-2.329A5.5,5.5,0,0,0,442.4,66.4a2.545,2.545,0,0,0-1.2-1.256,4.445,4.445,0,0,0-1.953-.386h-1.556Z" transform="translate(-332.834 -50.337)" fill="#86a8e0"/><path d="M500.162,62V75.484H496.9V62Z" transform="translate(-378.892 -50.345)" fill="#86a8e0"/><path d="M539.484,62V75.484h-2.768L531.349,67.7h-.087v7.786H528V62h2.807l5.307,7.772h.113V62Z" transform="translate(-401.817 -50.345)" fill="#86a8e0"/><path d="M598.83,65.847a2.463,2.463,0,0,0-.331-.72,2.143,2.143,0,0,0-.526-.544,2.32,2.32,0,0,0-.739-.352,3.317,3.317,0,0,0-.9-.116,2.978,2.978,0,0,0-1.687.486,3.029,3.029,0,0,0-1.1,1.38,5.519,5.519,0,0,0-.389,2.195,5.838,5.838,0,0,0,.376,2.208,2.828,2.828,0,0,0,2.813,1.877,3.548,3.548,0,0,0,1.517-.292,2.1,2.1,0,0,0,.946-.833,2.429,2.429,0,0,0,.323-1.277l.6.074h-3.278V67.566h5.814v1.766a5.964,5.964,0,0,1-.768,3.1,5.159,5.159,0,0,1-2.1,1.982,6.629,6.629,0,0,1-3.083.7,6.718,6.718,0,0,1-3.393-.836,5.805,5.805,0,0,1-2.276-2.389,7.774,7.774,0,0,1-.817-3.68,8.149,8.149,0,0,1,.494-2.947,6.223,6.223,0,0,1,1.388-2.19,5.9,5.9,0,0,1,2.045-1.364,7.191,7.191,0,0,1,4.705-.124,5.884,5.884,0,0,1,1.79.946,5.038,5.038,0,0,1,1.267,1.456,4.759,4.759,0,0,1,.607,1.84Z" transform="translate(-447.395 -49.792)" fill="#86a8e0"/><path d="M303.58,172.918V160.262h5.068a5.743,5.743,0,0,1,2.329.415,3.094,3.094,0,0,1,1.4,1.146,3.054,3.054,0,0,1,.471,1.685,2.747,2.747,0,0,1-.3,1.3,2.533,2.533,0,0,1-.812.912,3.319,3.319,0,0,1-1.178.5v.124a2.891,2.891,0,0,1,2.384,1.461,3.12,3.12,0,0,1,.4,1.609,3.286,3.286,0,0,1-.5,1.8,3.388,3.388,0,0,1-1.469,1.246,5.585,5.585,0,0,1-2.392.457Zm2.676-7.36h1.985a2.366,2.366,0,0,0,.98-.194,1.6,1.6,0,0,0,.678-.552,1.453,1.453,0,0,0,.25-.86,1.393,1.393,0,0,0-.484-1.107,2.032,2.032,0,0,0-1.375-.421h-2.034Zm0,5.173h2.182a2.506,2.506,0,0,0,1.632-.431,1.414,1.414,0,0,0,.526-1.146,1.7,1.7,0,0,0-.263-.925,1.742,1.742,0,0,0-.72-.631,2.5,2.5,0,0,0-1.109-.229h-2.245Z" transform="translate(-236.385 -122.777)" fill="#86a8e0"/><path d="M355.294,166.12a7.718,7.718,0,0,1-.723,3.459,5.441,5.441,0,0,1-1.985,2.25,5.635,5.635,0,0,1-5.759,0,5.441,5.441,0,0,1-1.985-2.25,8.645,8.645,0,0,1,0-6.921,5.441,5.441,0,0,1,1.985-2.25,5.651,5.651,0,0,1,5.759,0,5.441,5.441,0,0,1,1.985,2.25A7.728,7.728,0,0,1,355.294,166.12Zm-1.482,0a6.331,6.331,0,0,0-.549-2.776,3.89,3.89,0,0,0-7.113,0,7.313,7.313,0,0,0,0,5.549,3.887,3.887,0,0,0,7.113,0,6.308,6.308,0,0,0,.552-2.773Z" transform="translate(-266.27 -122.305)"/><path d="M402.721,166.12a7.684,7.684,0,0,1-.723,3.459,5.436,5.436,0,0,1-1.982,2.25,5.641,5.641,0,0,1-5.762,0,5.436,5.436,0,0,1-1.982-2.25,8.645,8.645,0,0,1,0-6.921,5.436,5.436,0,0,1,1.982-2.25,5.657,5.657,0,0,1,5.762,0,5.436,5.436,0,0,1,1.982,2.25A7.694,7.694,0,0,1,402.721,166.12Zm-1.483,0a6.335,6.335,0,0,0-.547-2.776,3.89,3.89,0,0,0-7.113,0,7.313,7.313,0,0,0,0,5.549,3.888,3.888,0,0,0,7.113,0A6.31,6.31,0,0,0,401.239,166.12Z" transform="translate(-301.233 -122.306)"/><path d="M436.25,161.632V160.27h9.491v1.362h-3.979v11.3H440.23v-11.3Z" transform="translate(-334.183 -122.785)"/><path d="M487.305,164.213h-2.692a2.687,2.687,0,0,0-.3-.936,2.4,2.4,0,0,0-.586-.7,2.576,2.576,0,0,0-.825-.444,3.126,3.126,0,0,0-1.009-.155,3.012,3.012,0,0,0-1.711.486,3.155,3.155,0,0,0-1.133,1.406,5.614,5.614,0,0,0-.4,2.242,5.685,5.685,0,0,0,.4,2.274,2.933,2.933,0,0,0,2.823,1.861,3.353,3.353,0,0,0,1-.142,2.629,2.629,0,0,0,.82-.418,2.432,2.432,0,0,0,.6-.67,2.715,2.715,0,0,0,.331-.894h2.7a4.928,4.928,0,0,1-.526,1.68,5.064,5.064,0,0,1-1.12,1.438,5.2,5.2,0,0,1-1.669,1,6.12,6.12,0,0,1-2.184.368,5.969,5.969,0,0,1-3.025-.765,5.428,5.428,0,0,1-2.1-2.221,8.331,8.331,0,0,1,.018-7.036,5.411,5.411,0,0,1,2.1-2.216,5.922,5.922,0,0,1,3-.762,6.547,6.547,0,0,1,2.042.308,5.227,5.227,0,0,1,1.672.9,4.745,4.745,0,0,1,1.188,1.446A5.448,5.448,0,0,1,487.305,164.213Z" transform="translate(-363.425 -122.296)" fill="#86a8e0"/><path d="M522.689,172.926H521.08l4.647-12.656H527.3l4.647,12.656h-1.606l-3.767-10.653h-.1Zm.591-4.944h6.477v1.362H523.28Z" transform="translate(-396.716 -122.785)"/><path d="M567,160.27h1.84l4.3,10.514h.147l4.3-10.514h1.84v12.656H578v-9.615h-.124l-3.943,9.615H572.52l-3.956-9.615h-.124v9.615H567Z" transform="translate(-430.566 -122.785)"/><path d="M622.89,172.913V160.257h4.277a4.923,4.923,0,0,1,2.439.526,3.38,3.38,0,0,1,1.406,1.443,4.436,4.436,0,0,1,.457,2.027,4.515,4.515,0,0,1-.455,2.032,3.4,3.4,0,0,1-1.4,1.456,4.839,4.839,0,0,1-2.421.541h-3.065V166.92h3.015a3.278,3.278,0,0,0,1.638-.352,2.1,2.1,0,0,0,.9-.954,3.417,3.417,0,0,0,0-2.72,2.051,2.051,0,0,0-.9-.944,3.451,3.451,0,0,0-1.659-.342h-2.694v11.3Z" transform="translate(-471.765 -122.771)"/></g></svg>