<svg xmlns="http://www.w3.org/2000/svg" width="21.411" height="21.748" viewBox="0 0 21.411 21.748"><g transform="translate(0.5 1.335)"><path d="M118.109,39.2a.237.237,0,0,0-.235.207l-.249,1.921a8.232,8.232,0,0,0-2.671,1.105l-1.535-1.181h0a.237.237,0,0,0-.313.02l-1.835,1.835h0a.237.237,0,0,0-.02.313l1.181,1.535a8.258,8.258,0,0,0-1.105,2.668l-1.919.251h0a.237.237,0,0,0-.207.235V50.7a.237.237,0,0,0,.207.235l1.919.249a8.228,8.228,0,0,0,1.105,2.671l-1.181,1.535h0a.237.237,0,0,0,.021.313l.918.916h0l.916.918h0a.237.237,0,0,0,.313.02l1.535-1.183a8.235,8.235,0,0,0,2.671,1.108l.249,1.919h0a.237.237,0,0,0,.235.207H120.7a.237.237,0,0,0,.235-.207l.249-1.919a8.237,8.237,0,0,0,2.671-1.108l1.535,1.183h0a.237.237,0,0,0,.313-.02l.916-.918h0l.918-.916h0a.237.237,0,0,0,.021-.313l-1.181-1.535a8.232,8.232,0,0,0,1.105-2.671l1.921-.249h0a.238.238,0,0,0,.207-.235V48.109a.237.237,0,0,0-.207-.235l-1.922-.251a8.239,8.239,0,0,0-1.105-2.668l1.181-1.535a.237.237,0,0,0-.02-.313l-1.835-1.835a.237.237,0,0,0-.313-.02l-1.535,1.181a8.231,8.231,0,0,0-2.671-1.105l-.249-1.921a.238.238,0,0,0-.235-.207h-2.594Zm.209.475h2.177l.244,1.882h0a.237.237,0,0,0,.189.2,7.756,7.756,0,0,1,2.81,1.163.237.237,0,0,0,.277-.009l1.5-1.157,1.54,1.54L125.9,44.8h0a.237.237,0,0,0-.009.277,7.762,7.762,0,0,1,1.163,2.807h0a.237.237,0,0,0,.2.189l1.882.246v2.177l-1.882.244h0a.237.237,0,0,0-.2.189,7.755,7.755,0,0,1-1.163,2.81.237.237,0,0,0,.009.277l1.157,1.5-.771.769h0l-.769.771-1.5-1.159a.237.237,0,0,0-.277-.009,7.761,7.761,0,0,1-2.81,1.165.237.237,0,0,0-.189.2l-.244,1.879h-2.177l-.244-1.879a.237.237,0,0,0-.189-.2,7.76,7.76,0,0,1-2.81-1.165.238.238,0,0,0-.277.009l-1.5,1.159-.769-.771h0l-.771-.769,1.157-1.5a.237.237,0,0,0,.009-.277,7.756,7.756,0,0,1-1.163-2.81.237.237,0,0,0-.2-.189l-1.879-.244V48.318l1.88-.246h0a.237.237,0,0,0,.2-.189,7.786,7.786,0,0,1,1.163-2.808.237.237,0,0,0-.009-.276l-1.157-1.5.771-.771.769-.769,1.5,1.157a.238.238,0,0,0,.277.009,7.758,7.758,0,0,1,2.81-1.163.237.237,0,0,0,.189-.2Z" transform="translate(-109.202 -40.034)" fill="#86a8e0" stroke="#86a8e0" stroke-width="1" fill-rule="evenodd"/><path d="M248.109,173.61a4.509,4.509,0,1,0,4.509,4.509A4.512,4.512,0,0,0,248.109,173.61Zm0,.475a4.035,4.035,0,1,1-4.035,4.035A4.031,4.031,0,0,1,248.109,174.085Z" transform="translate(-237.904 -168.748)" fill="#86a8e0" stroke="#86a8e0" stroke-width="1" fill-rule="evenodd"/></g></svg>