<svg xmlns="http://www.w3.org/2000/svg" width="31.293" height="27.482" viewBox="0 0 31.293 27.482">
  <path d="M25.235.013A6.174,6.174,0,0,1,27.56.458a5.944,5.944,0,0,1,1.961,1.327,5.97,5.97,0,0,1,1.327,1.961,6.089,6.089,0,0,1,.446,2.325v9.135a6.089,6.089,0,0,1-.446,2.325,5.97,5.97,0,0,1-1.327,1.961,6.172,6.172,0,0,1-1.961,1.327,6.079,6.079,0,0,1-2.325.446H19.421a17.2,17.2,0,0,1-1.714,1.879,16.714,16.714,0,0,1-2.338,1.831,17.053,17.053,0,0,1-2.677,1.444,21.261,21.261,0,0,1-3.005,1.034A.855.855,0,0,1,8.9,25.986a9.289,9.289,0,0,0,1.256-1.327,6.72,6.72,0,0,0,.8-1.34v-.013c.224-.494.423-1,.6-1.5.059-.176.117-.364.176-.553H6.059a6.174,6.174,0,0,1-2.325-.446A5.97,5.97,0,0,1,1.772,19.48,5.944,5.944,0,0,1,.446,17.519,6.174,6.174,0,0,1,0,15.193V6.059A6.174,6.174,0,0,1,.446,3.733,5.97,5.97,0,0,1,1.772,1.772,5.97,5.97,0,0,1,3.733.446,6.1,6.1,0,0,1,6.059,0q9.588,0,19.176.013Zm-21,12.038L6.28,11.9a1.94,1.94,0,0,0,.27.868,1.083,1.083,0,0,0,.95.486.96.96,0,0,0,.708-.25.785.785,0,0,0,.015-1.133,2.542,2.542,0,0,0-1.1-.466,4.359,4.359,0,0,1-2.017-.973A2.09,2.09,0,0,1,4.5,8.89a2.33,2.33,0,0,1,.311-1.164,2.155,2.155,0,0,1,.935-.863A3.871,3.871,0,0,1,7.457,6.55a3.14,3.14,0,0,1,2.035.573,2.6,2.6,0,0,1,.833,1.818L8.3,9.079a1.341,1.341,0,0,0-.339-.792,1,1,0,0,0-.716-.25.782.782,0,0,0-.565.183.593.593,0,0,0-.191.446.482.482,0,0,0,.155.344,1.652,1.652,0,0,0,.718.3,8.135,8.135,0,0,1,2.02.708,2.256,2.256,0,0,1,.889.889,2.533,2.533,0,0,1,.278,1.187,2.823,2.823,0,0,1-.369,1.421,2.44,2.44,0,0,1-1.036.988,3.7,3.7,0,0,1-1.676.336,3.149,3.149,0,0,1-2.46-.787,3.355,3.355,0,0,1-.769-2Zm7.584-5.363h2.84l1.082,4.877,1.085-4.877h2.827V14.7H17.893V8.592L16.533,14.7h-1.6L13.581,8.592V14.7H11.819V6.688Zm8.916,5.363,2.045-.148a1.94,1.94,0,0,0,.27.868,1.086,1.086,0,0,0,.95.486.96.96,0,0,0,.708-.25.785.785,0,0,0,.015-1.133,2.574,2.574,0,0,0-1.1-.466,4.359,4.359,0,0,1-2.017-.973A2.1,2.1,0,0,1,21,8.89a2.33,2.33,0,0,1,.311-1.164,2.141,2.141,0,0,1,.935-.863,3.879,3.879,0,0,1,1.714-.313,3.14,3.14,0,0,1,2.035.573,2.6,2.6,0,0,1,.833,1.818L24.8,9.079a1.341,1.341,0,0,0-.339-.792,1,1,0,0,0-.716-.25.782.782,0,0,0-.565.183.593.593,0,0,0-.191.446.482.482,0,0,0,.155.344,1.652,1.652,0,0,0,.718.3,8.175,8.175,0,0,1,2.02.708,2.256,2.256,0,0,1,.889.889,2.533,2.533,0,0,1,.278,1.187,2.823,2.823,0,0,1-.369,1.421,2.44,2.44,0,0,1-1.036.988,3.7,3.7,0,0,1-1.676.336,3.149,3.149,0,0,1-2.46-.787,3.341,3.341,0,0,1-.772-2ZM6.071,1.727a4.313,4.313,0,0,0-1.678.318,4.356,4.356,0,0,0-1.4.95,4.328,4.328,0,0,0-.95,1.4,4.321,4.321,0,0,0-.316,1.678v9.135A4.363,4.363,0,0,0,4.4,19.233a4.261,4.261,0,0,0,1.668.318h6.8a.862.862,0,0,1,.858.858,1.194,1.194,0,0,1-.046.293c-.153.563-.316,1.128-.5,1.668-.2.576-.41,1.115-.647,1.645a8.489,8.489,0,0,1-.41.8,16.185,16.185,0,0,0,2.312-1.256,15.835,15.835,0,0,0,2.1-1.645,15.267,15.267,0,0,0,1.785-2,.844.844,0,0,1,.68-.341h6.234a4.27,4.27,0,0,0,1.668-.318,4.475,4.475,0,0,0,1.408-.952,4.18,4.18,0,0,0,1.268-3.076V6.094a4.313,4.313,0,0,0-.318-1.678,4.356,4.356,0,0,0-.95-1.4,4.165,4.165,0,0,0-3.076-1.266c-6.079,0-13.064-.025-19.164-.025Z" fill="#fff"/></svg>
