<svg xmlns="http://www.w3.org/2000/svg" width="21.331" height="20.632" viewBox="0 0 21.331 20.632"><g transform="translate(-27.147 -200.096)"><path d="M72.277,48.053a1.5,1.5,0,0,1-.337.04.978.978,0,0,0-.378.06.422.422,0,0,1-.15.047.358.358,0,0,0-.131.035.782.782,0,0,1-.173.054,1.388,1.388,0,0,0-.376.159c-.021.012-.068.034-.1.05s-.111.056-.169.089-.121.069-.143.078a2.491,2.491,0,0,0-.226.164,2.034,2.034,0,0,1-.2.147.2.2,0,0,0-.061.044c-.026.024-.081.073-.123.109s-.158.153-.257.26-.2.214-.222.236a1.8,1.8,0,0,0-.187.258,2.987,2.987,0,0,0-.295.514.19.19,0,0,1-.051.087.119.119,0,0,0-.036.083.409.409,0,0,1-.052.147.412.412,0,0,0-.052.138.217.217,0,0,1-.041.1.768.768,0,0,0-.062.256.7.7,0,0,1-.057.242,4.036,4.036,0,0,0,.012,1.181.38.38,0,0,1,.044.138.489.489,0,0,0,.051.158.535.535,0,0,1,.053.151.607.607,0,0,0,.076.176c.041.069.112.2.158.282a.675.675,0,0,0,.1.157,1.4,1.4,0,0,1,.168.188,1.4,1.4,0,0,0,.168.188.334.334,0,0,1,.085.056,3.432,3.432,0,0,0,.481.349c.032.016.058.039.058.051s.022.021.048.021a.237.237,0,0,1,.112.049.431.431,0,0,0,.132.065.222.222,0,0,1,.1.052.113.113,0,0,0,.075.035.242.242,0,0,1,.111.05.244.244,0,0,0,.114.05.357.357,0,0,1,.122.038.719.719,0,0,0,.181.053.684.684,0,0,1,.172.049,7.2,7.2,0,0,0,2.968,0,.929.929,0,0,1,.174-.05.721.721,0,0,0,.169-.053.345.345,0,0,1,.12-.037.244.244,0,0,0,.114-.05.242.242,0,0,1,.113-.05.082.082,0,0,0,.062-.024,1.379,1.379,0,0,1,.362-.177.061.061,0,0,0,.05-.038.063.063,0,0,1,.054-.038.094.094,0,0,0,.067-.05c.015-.028.039-.05.053-.05a3.333,3.333,0,0,0,.556-.438,1.274,1.274,0,0,1,.092-.11,1.446,1.446,0,0,0,.26-.351c.016-.043.038-.079.05-.079s.035-.04.051-.088.039-.088.051-.088.029-.041.039-.091a.5.5,0,0,1,.052-.144.513.513,0,0,0,.052-.153.507.507,0,0,1,.057-.159,4.3,4.3,0,0,0,0-1.223.946.946,0,0,1-.059-.262.806.806,0,0,0-.051-.237.5.5,0,0,1-.051-.137.289.289,0,0,0-.054-.121.135.135,0,0,1-.036-.084.415.415,0,0,0-.05-.143c-.027-.051-.062-.121-.078-.156a1.136,1.136,0,0,0-.08-.138c-.028-.041-.066-.1-.084-.138a3.277,3.277,0,0,0-.318-.449c-.161-.177-.6-.6-.62-.6a.373.373,0,0,1-.1-.062l-.143-.107a.881.881,0,0,1-.1-.088.137.137,0,0,0-.073-.044.118.118,0,0,1-.066-.033,1.326,1.326,0,0,0-.209-.115,1.06,1.06,0,0,1-.188-.1.188.188,0,0,0-.085-.038.327.327,0,0,1-.11-.05.378.378,0,0,0-.146-.048.717.717,0,0,1-.181-.053.381.381,0,0,0-.14-.038.429.429,0,0,1-.156-.047.964.964,0,0,0-.363-.06,1.864,1.864,0,0,1-.345-.041.824.824,0,0,0-.417,0m6.271,1.439a.471.471,0,0,1-.158.037.259.259,0,0,0-.14.051.225.225,0,0,1-.088.051.476.476,0,0,0-.209.2c-.01.029-.028.053-.04.053a.35.35,0,0,0-.089.128.918.918,0,0,0,.1.9.1.1,0,0,1,.039.066c0,.019.011.035.024.035a.144.144,0,0,1,.067.041.882.882,0,0,0,.248.159.515.515,0,0,1,.122.05.444.444,0,0,0,.141.05,1.881,1.881,0,0,1,.478.24.093.093,0,0,0,.056.036,2.479,2.479,0,0,1,.515.569.683.683,0,0,0,.091.148.083.083,0,0,1,.023.063.432.432,0,0,0,.05.145,1.1,1.1,0,0,1,.008.724c-.032.021-.058.048-.058.06a.159.159,0,0,1-.045.068c-.025.025-.076.079-.114.119a2.472,2.472,0,0,1-.591.462.1.1,0,0,0-.052.035.2.2,0,0,1-.09.05,1.719,1.719,0,0,0-.327.166l-.232.128a1.065,1.065,0,0,0-.356.281.942.942,0,0,0,0,1.077.15.15,0,0,1,.046.071.356.356,0,0,0,.171.149.152.152,0,0,1,.073.048.3.3,0,0,0,.14.065.382.382,0,0,1,.128.044.958.958,0,0,0,.437,0c.027-.014.119-.057.2-.095a1.951,1.951,0,0,0,.368-.21,1.784,1.784,0,0,1,.187-.1.847.847,0,0,0,.171-.1.1.1,0,0,1,.075-.024.17.17,0,0,0,.106-.05.159.159,0,0,1,.088-.051,2.824,2.824,0,0,0,.524-.376,4.571,4.571,0,0,0,.38-.368.232.232,0,0,0,.058-.082c0-.012.016-.027.035-.034a2.853,2.853,0,0,0,.354-.491A.223.223,0,0,1,81.516,54a.2.2,0,0,0,.052-.088.217.217,0,0,1,.048-.09.49.49,0,0,0,.065-.218.8.8,0,0,1,.043-.205,3.463,3.463,0,0,0-.1-1.318,1.049,1.049,0,0,1-.05-.195.412.412,0,0,0-.052-.138.414.414,0,0,1-.052-.135.109.109,0,0,0-.039-.072.1.1,0,0,1-.039-.059,1.078,1.078,0,0,0-.175-.325.071.071,0,0,1-.033-.053.147.147,0,0,0-.052-.078.157.157,0,0,1-.052-.067,4.007,4.007,0,0,0-.7-.748.714.714,0,0,1-.131-.1.494.494,0,0,0-.147-.1.03.03,0,0,1-.032-.026c0-.014-.047-.043-.1-.065s-.1-.049-.1-.06-.032-.027-.071-.037a.326.326,0,0,1-.1-.04,1.006,1.006,0,0,0-.33-.148.235.235,0,0,1-.111-.036,1.153,1.153,0,0,0-.7-.1m2.761,7.162a.987.987,0,0,1-.193.05.365.365,0,0,0-.176.065.076.076,0,0,1-.053.038.949.949,0,0,0-.355.386,1.053,1.053,0,0,1-.055.193.349.349,0,0,0-.011.308c.024.085.05.191.058.236s.022.082.032.082a.446.446,0,0,1,.1.112.832.832,0,0,0,.193.181l.152.1.117.073a1.465,1.465,0,0,1,.232.237,1.707,1.707,0,0,1,.25.356.966.966,0,0,0,.079.123.219.219,0,0,1,.046.1.111.111,0,0,0,.039.075.1.1,0,0,1,.039.067,2.02,2.02,0,0,0,.17.388.325.325,0,0,1,.037.132.418.418,0,0,0,.052.159.412.412,0,0,1,.052.152.328.328,0,0,0,.036.126.864.864,0,0,1,.055.231,1.135,1.135,0,0,0,.052.241,1.453,1.453,0,0,1,.05.314,2.758,2.758,0,0,0,.056.387,11.706,11.706,0,0,1,.061,1.506c.024,1.45.027,1.481.162,1.681a.938.938,0,0,0,.48.362l.208.053c.11.03.129.027.48-.078.091-.027.127-.054.317-.241a.58.58,0,0,0,.216-.376,16.18,16.18,0,0,0-.085-3.535c-.02-.11-.045-.274-.055-.364a.669.669,0,0,0-.053-.215.656.656,0,0,1-.052-.213.7.7,0,0,0-.049-.212.581.581,0,0,1-.05-.175.508.508,0,0,0-.055-.175.213.213,0,0,1-.037-.1.491.491,0,0,0-.051-.151.5.5,0,0,1-.051-.145.469.469,0,0,0-.053-.143.453.453,0,0,1-.052-.139.227.227,0,0,0-.052-.1.227.227,0,0,1-.052-.108.109.109,0,0,0-.037-.074.212.212,0,0,1-.054-.1.212.212,0,0,0-.054-.1.107.107,0,0,1-.037-.072.314.314,0,0,0-.065-.127.33.33,0,0,1-.065-.118.03.03,0,0,0-.027-.033c-.015,0-.035-.02-.045-.044a2.674,2.674,0,0,0-.395-.533l-.222-.227a1.819,1.819,0,0,0-.246-.211.715.715,0,0,1-.135-.107.076.076,0,0,0-.056-.031.124.124,0,0,1-.07-.031.822.822,0,0,0-.295-.17.357.357,0,0,1-.125-.038.42.42,0,0,0-.3-.014m-12.772.957a.722.722,0,0,1-.219.052.907.907,0,0,0-.249.061.253.253,0,0,1-.111.036.481.481,0,0,0-.155.05.5.5,0,0,1-.138.05.21.21,0,0,0-.1.05.218.218,0,0,1-.088.05.983.983,0,0,0-.192.1,1.136,1.136,0,0,1-.185.1c-.012,0-.029.017-.037.038a.057.057,0,0,1-.044.038,4.245,4.245,0,0,0-.828.727c0,.014-.023.039-.052.056s-.052.041-.052.053a.62.62,0,0,1-.1.138,2.411,2.411,0,0,0-.3.474c-.021.045-.048.082-.059.082s-.034.031-.051.069a.869.869,0,0,1-.056.107,1.816,1.816,0,0,0-.236.46.153.153,0,0,1-.034.1,1.494,1.494,0,0,0-.164.4c-.022.066-.048.119-.06.119s-.029.048-.038.106a.365.365,0,0,1-.052.144.411.411,0,0,0-.049.169.71.71,0,0,1-.055.206.461.461,0,0,0-.04.182,1.363,1.363,0,0,1-.049.283,2.548,2.548,0,0,0-.065.43,1.7,1.7,0,0,1-.048.339A6.608,6.608,0,0,0,64.6,63.92v.954l.106.193a1.617,1.617,0,0,0,.441.5c.013,0,.038.023.056.05s.046.05.063.05a.164.164,0,0,1,.078.042.965.965,0,0,0,.245.142.3.3,0,0,1,.1.064.084.084,0,0,0,.064.028.242.242,0,0,1,.113.05.245.245,0,0,0,.114.05.313.313,0,0,1,.126.05.312.312,0,0,0,.123.05.449.449,0,0,1,.142.05.442.442,0,0,0,.15.05.222.222,0,0,1,.1.034.482.482,0,0,0,.142.053.377.377,0,0,1,.13.05.492.492,0,0,0,.178.049.646.646,0,0,1,.194.051.623.623,0,0,0,.185.051.8.8,0,0,1,.2.053.465.465,0,0,0,.169.036.746.746,0,0,1,.2.038,1.423,1.423,0,0,0,.285.053.971.971,0,0,1,.254.051,1.422,1.422,0,0,0,.327.057,1.505,1.505,0,0,1,.3.047,1.453,1.453,0,0,0,.308.042,3.568,3.568,0,0,1,.414.05,5.181,5.181,0,0,0,.609.049c.25.008.53.028.622.043.231.038,2.269.039,2.605,0,.143-.016.463-.036.713-.044a5.139,5.139,0,0,0,.609-.049,3.594,3.594,0,0,1,.415-.051,1.5,1.5,0,0,0,.308-.042,1.484,1.484,0,0,1,.3-.046,1.317,1.317,0,0,0,.327-.06.539.539,0,0,1,.2-.039.91.91,0,0,0,.233-.036,1.615,1.615,0,0,1,.254-.053,1.012,1.012,0,0,0,.22-.05,1.242,1.242,0,0,1,.207-.058,1.734,1.734,0,0,0,.233-.063.709.709,0,0,1,.2-.04.2.2,0,0,0,.124-.036.266.266,0,0,1,.125-.052.47.47,0,0,0,.147-.053.217.217,0,0,1,.092-.036.553.553,0,0,0,.143-.049.563.563,0,0,1,.143-.049.329.329,0,0,0,.117-.051.317.317,0,0,1,.133-.05A.129.129,0,0,0,79.077,66a.224.224,0,0,1,.105-.052.222.222,0,0,0,.1-.05.227.227,0,0,1,.106-.051c.042-.009.076-.025.076-.037s.035-.032.078-.047.078-.037.078-.051.026-.033.058-.042c.067-.02.071-.023.324-.262a.96.96,0,0,0,.188-.211.1.1,0,0,1,.036-.063.23.23,0,0,0,.053-.113.231.231,0,0,1,.055-.115,11.418,11.418,0,0,0,0-1.936,4.469,4.469,0,0,1-.054-.473,1.7,1.7,0,0,0-.051-.364,1.084,1.084,0,0,1-.051-.25.679.679,0,0,0-.041-.2.658.658,0,0,1-.049-.183.67.67,0,0,0-.066-.212.241.241,0,0,1-.04-.12.229.229,0,0,0-.035-.114.451.451,0,0,1-.054-.112,3.355,3.355,0,0,0-.16-.405.3.3,0,0,1-.036-.1.429.429,0,0,0-.052-.128.428.428,0,0,1-.052-.128.107.107,0,0,0-.04-.067.4.4,0,0,1-.079-.11,1.4,1.4,0,0,0-.138-.24.364.364,0,0,1-.05-.075,4.546,4.546,0,0,0-1.566-1.605.9.9,0,0,1-.164-.1.071.071,0,0,0-.054-.023.241.241,0,0,1-.106-.05.241.241,0,0,0-.1-.05.571.571,0,0,1-.146-.047,1.618,1.618,0,0,0-.431-.133c-.078-.013-.2-.04-.274-.06-.168-.046-7.862-.055-7.909-.009" transform="translate(-36.703 152.843)" fill="none" stroke="#86a8e0" stroke-width="1.5" fill-rule="evenodd"/></g></svg>